Coordinates
version=1
nRows=17
nColumns=40
inDegrees=yes

Units are S.I. units (second, meters, Newtons, ...)
Angles are in degrees.

endheader
time	pelvis_tilt	pelvis_list	pelvis_rotation	pelvis_tx	pelvis_ty	pelvis_tz	hip_flexion_r	hip_adduction_r	hip_rotation_r	knee_angle_r	knee_angle_r_beta	ankle_angle_r	subtalar_angle_r	mtp_angle_r	hip_flexion_l	hip_adduction_l	hip_rotation_l	knee_angle_l	knee_angle_l_beta	ankle_angle_l	subtalar_angle_l	mtp_angle_l	lumbar_extension	lumbar_bending	lumbar_rotation	arm_flex_r	arm_add_r	arm_rot_r	elbow_flex_r	pro_sup_r	wrist_flex_r	wrist_dev_r	arm_flex_l	arm_add_l	arm_rot_l	elbow_flex_l	pro_sup_l	wrist_flex_l	wrist_dev_l
     44.33250000	    -10.04250431	     -5.91089282	      1.60430394	      1.03937389	      0.91949427	      0.41905617	      8.59064760	     -1.42415841	    -11.72682457	     28.97151861	     28.97151861	     12.88450123	     -0.84783956	    -10.57396870	     30.92065778	     -5.37077586	     -1.29693864	     25.34508061	     25.34508061	      7.80047741	    -13.11564111	      6.17749646	    -10.32270546	      4.73026435	      2.83085430	     24.04855888	    -12.96153813	      5.40694674	     94.58160174	     44.30410276	      0.00000000	      0.00000000	     -6.00369638	     -7.29643025	      1.26830815	     34.28097789	     44.88055021	      0.00000000	      0.00000000
     44.34514286	    -10.07264326	     -5.95856147	      1.49631929	      1.03928426	      0.92070916	      0.41606810	      9.87315955	     -1.81654708	    -11.17025108	     31.87289387	     31.87289387	     11.06205331	     -2.76970673	    -12.22448903	     30.18159912	     -5.32302719	     -1.59520897	     24.98238329	     24.98238329	      8.20837302	    -12.78565898	      5.74280168	    -10.26860035	      4.83382904	      2.73125783	     22.85818548	    -12.75555526	      5.12531464	     89.98340228	     44.48414148	      0.00000000	      0.00000000	     -5.60361841	     -7.52801552	      0.32546678	     35.59204855	     45.05467326	      0.00000000	      0.00000000
     44.35778571	    -10.10897896	     -5.82371392	      1.35315914	      1.03901062	      0.92166681	      0.41313763	     11.46863937	     -2.53135530	    -10.78513394	     35.32535315	     35.32535315	      9.56373156	     -4.01368918	    -12.74322785	     29.43436368	     -5.10129495	     -1.97980668	     24.60884287	     24.60884287	      8.60617867	    -12.47307164	      5.51107244	    -10.32011586	      4.72852242	      3.12459409	     21.00374266	    -13.35291517	      5.37269608	     87.47598023	     44.55581867	      0.00000000	      0.00000000	     -4.76276844	     -7.86383537	     -0.07040463	     36.47999897	     45.12805905	      0.00000000	      0.00000000
     44.37042857	    -10.11281639	     -5.85530480	      1.21314362	      1.03864084	      0.92248750	      0.41054065	     13.06100659	     -2.87489928	    -10.12757141	     38.60305276	     38.60305276	      7.28802363	     -6.34218481	    -14.25889997	     28.72381108	     -5.08332788	     -2.34138214	     24.30999152	     24.30999152	      8.85600876	    -12.12591402	      4.74223213	    -10.27774873	      4.79235827	      2.31628574	     20.84364320	    -12.59983714	      5.92356577	     81.10483559	     44.77565382	      0.00000000	      0.00000000	     -5.17618027	     -8.25749712	     -1.65304385	     39.12133579	     45.38506565	      0.00000000	      0.00000000
     44.38307143	    -10.08349361	     -5.68157449	      1.08975480	      1.03814113	      0.92304245	      0.40783020	     14.84521712	     -3.56468954	     -9.68285000	     42.28014881	     42.28014881	      5.58618005	     -7.84831476	    -14.13834546	     28.02062697	     -4.82372419	     -2.70706262	     24.10784407	     24.10784407	      9.23932501	    -11.90860649	      4.51958515	    -10.40604842	      4.67892297	      2.73861417	     18.97542494	    -13.28418989	      6.24193864	     78.85439506	     44.83449060	      0.00000000	      0.00000000	     -4.09606755	     -8.65588970	     -2.02746449	     40.06795861	     45.45313704	      0.00000000	      0.00000000
     44.39571429	    -10.05711253	     -5.76011142	      0.93286523	      1.03756846	      0.92352031	      0.40560121	     16.69154764	     -3.75029148	     -8.97035476	     45.85267807	     45.85267807	      4.03481153	     -9.80749846	    -12.61109191	     27.38234136	     -4.89045526	     -3.06654503	     23.97238371	     23.97238371	      9.59587809	    -11.50051597	      3.81757185	    -10.36599944	      4.78324338	      2.09829275	     18.93247975	    -12.65004600	      6.74771950	     72.19237707	     45.05398905	      0.00000000	      0.00000000	     -4.36186725	     -9.18635308	     -3.15397390	     42.81729721	     45.64309499	      0.00000000	      0.00000000
     44.40835714	     -9.98254662	     -5.70928285	      0.83412463	      1.03688738	      0.92383301	      0.40326378	     18.58617251	     -4.15123210	     -8.47360449	     49.49632481	     49.49632481	      2.89030584	    -11.21419314	    -10.26825156	     26.74338666	     -4.77909637	     -3.35308546	     23.92004791	     23.92004791	      9.98922304	    -11.25800114	      3.40049667	    -10.46405079	      4.77713092	      1.79466028	     18.21271536	    -12.73134857	      7.68436447	     67.53192718	     45.18398928	      0.00000000	      0.00000000	     -4.00928253	     -9.63207744	     -4.14065003	     45.00077149	     45.82304276	      0.00000000	      0.00000000
     44.42100000	     -9.94080563	     -5.58907724	      0.71088511	      1.03613062	      0.92399061	      0.40099921	     20.49162506	     -4.60505958	     -8.00447773	     52.85607885	     52.85607885	      1.34000390	    -12.84058318	     -9.43281431	     26.14006607	     -4.58511506	     -3.61413150	     23.87023375	     23.87023375	     10.42645527	    -11.11519305	      3.18804356	    -10.56758915	      4.73649188	      2.25960077	     16.34556735	    -13.42661603	      7.96585416	     65.19204124	     45.24558935	      0.00000000	      0.00000000	     -2.81008096	    -10.05166806	     -4.44975804	     46.07222923	     45.88407661	      0.00000000	      0.00000000
     44.43364286	     -9.76430557	     -5.50078090	      0.67055387	      1.03539553	      0.92429333	      0.39876291	     22.18238558	     -5.04105831	     -7.71200412	     55.92411567	     55.92411567	      0.02047725	    -14.31071952	     -8.52422083	     25.46512145	     -4.41093125	     -3.79810284	     23.93576832	     23.93576832	     10.84868818	    -10.93186424	      2.96361858	    -10.83529988	      4.77060134	      2.39491451	     14.56087293	    -13.89101845	      8.17464429	     62.83212356	     45.31063100	      0.00000000	      0.00000000	     -1.61056710	    -10.59143303	     -4.67575570	     47.10986961	     45.93330064	      0.00000000	      0.00000000
     44.44628571	     -9.64618424	     -5.58680203	      0.61374692	      1.03460932	      0.92451092	      0.39693472	     24.07802901	     -5.14112871	     -7.30686227	     59.08246235	     59.08246235	      0.50414122	    -14.91311625	     -2.93047075	     24.87268096	     -4.51014810	     -4.16561115	     24.02320689	     24.02320689	     11.51112473	    -10.30463882	      2.67513831	    -10.81850096	      4.87541148	      1.64328439	     15.11009447	    -12.92258974	      8.14125310	     54.36308322	     45.60298619	      0.00000000	      0.00000000	     -1.67857322	    -11.51057792	     -4.43502448	     50.05541848	     45.98983522	      0.00000000	      0.00000000
     44.45892857	     -9.49432330	     -5.58774188	      0.57595915	      1.03379735	      0.92481833	      0.39503613	     25.77649167	     -5.39909162	     -7.06070055	     61.69541174	     61.69541174	      0.40471531	    -15.76498229	     -0.22366096	     24.21751676	     -4.44610953	     -4.33382491	     24.05731679	     24.05731679	     12.05018700	    -10.05698437	      2.64583220	    -10.99783663	      4.94588662	      1.54793558	     13.96807668	    -13.19515512	      8.69313005	     50.35068978	     45.69906805	      0.00000000	      0.00000000	     -0.82331377	    -12.06674509	     -4.96192389	     51.93022513	     46.12187999	      0.00000000	      0.00000000
     44.47157143	     -9.32218276	     -5.59031269	      0.54044122	      1.03298017	      0.92518588	      0.39322748	     27.31923947	     -5.67319426	     -6.91437615	     63.82016628	     63.82016628	     -0.09019829	    -16.72706351	      0.50590551	     23.50908135	     -4.37559720	     -4.45029543	     24.02769349	     24.02769349	     12.55119000	     -9.85163585	      2.50513175	    -11.21351223	      5.06179485	      1.94535854	     12.08904771	    -13.86724792	      8.87775517	     47.79543670	     45.76708888	      0.00000000	      0.00000000	      0.57454535	    -12.43712460	     -5.22070433	     53.22519862	     46.18862057	      0.00000000	      0.00000000
     44.48421429	     -9.21681305	     -5.51430501	      0.47933396	      1.03207538	      0.92548824	      0.39157911	     28.91208461	     -6.02468056	     -6.75237468	     65.66731904	     65.66731904	     -0.31419456	    -17.48603619	      1.02055355	     22.82750091	     -4.24846315	     -4.68580974	     23.91141718	     23.91141718	     12.95944135	     -9.60411159	      2.39556942	    -11.35458432	      5.07391481	      2.09013571	     10.25948488	    -14.32490002	      9.00494127	     45.57924727	     45.82850733	      0.00000000	      0.00000000	      1.84509358	    -12.90963356	     -5.41134713	     54.37063171	     46.23751361	      0.00000000	      0.00000000
     44.49685714	     -8.98719149	     -5.62686642	      0.47691195	      1.03124318	      0.92608660	      0.39013199	     30.23645275	     -6.18870693	     -6.78846161	     67.09803107	     67.09803107	      0.02028364	    -17.88137026	      2.33225118	     22.01983925	     -4.33416253	     -4.87237098	     23.79560643	     23.79560643	     13.47666995	     -9.17056049	      2.32105388	    -11.63464387	      5.27736148	      2.27302257	      8.92662990	    -14.56526275	      8.92138627	     41.74838127	     45.96047032	      0.00000000	      0.00000000	      3.01524285	    -13.43980295	     -5.29252033	     56.06504101	     46.27776636	      0.00000000	      0.00000000
     44.50950000	     -8.86816269	     -5.62789392	      0.43298276	      1.03030982	      0.92660571	      0.38889437	     31.71025977	     -6.37914143	     -6.64652186	     68.28721398	     68.28721398	      0.69777591	    -18.00251056	      4.68670065	     21.30424395	     -4.33161957	     -5.15963634	     23.64417847	     23.64417847	     14.01877068	     -8.60573647	      2.42209546	    -11.70936820	      5.35276857	      1.60132871	      8.64102324	    -14.03685363	      8.22421088	     36.35333800	     46.17861743	      0.00000000	      0.00000000	      3.44895477	    -14.45358033	     -5.03434422	     58.23078446	     46.34417188	      0.00000000	      0.00000000
     44.52214286	     -8.76494092	     -5.58719366	      0.36689721	      1.02935312	      0.92714308	      0.38773422	     33.03879587	     -6.63694428	     -6.55975925	     68.97276495	     68.97276495	      0.83014482	    -18.21115057	      4.72765616	     20.49861780	     -4.24305116	     -5.35160363	     23.27959970	     23.27959970	     14.36929941	     -8.30936717	      2.37840814	    -11.83814785	      5.39134279	      1.74272195	      6.69888272	    -14.48799449	      8.24888523	     34.93662848	     46.21365236	      0.00000000	      0.00000000	      4.74924096	    -14.78924849	     -5.46632758	     59.42986852	     46.41350360	      0.00000000	      0.00000000
     44.53478571	     -8.62949359	     -5.65346658	      0.30841368	      1.02839788	      0.92779944	      0.38688450	     34.23821942	     -6.71847198	     -6.51301686	     69.29311123	     69.29311123	      1.18760136	    -18.28014934	      5.47291015	     19.71263629	     -4.35633763	     -5.74562504	     23.02592345	     23.02592345	     14.82302297	     -7.60698093	      2.30063790	    -12.01429316	      5.50236565	      1.51489823	      5.60939506	    -14.44051617	      7.51477868	     31.82453052	     46.34985167	      0.00000000	      0.00000000	      5.41490520	    -15.46056214	     -5.66555419	     61.72119261	     46.52131949	      0.00000000	      0.00000000
